<svg viewBox="0 0 330 200" xmlns="http://www.w3.org/2000/svg"><g><g><g><g><g><line x1="61.953125" y1="177" x2="56.953125" y2="177" style="visibility: inherit;" fill="rgb(0, 0, 0)" stroke="rgb(204, 204, 204)" stroke-width="1px"></line><line x1="61.953125" y1="159.29999999999998" x2="56.953125" y2="159.29999999999998" style="visibility: inherit;" fill="rgb(0, 0, 0)" stroke="rgb(204, 204, 204)" stroke-width="1px"></line><line x1="61.953125" y1="141.59999999999997" x2="56.953125" y2="141.59999999999997" style="visibility: inherit;" fill="rgb(0, 0, 0)" stroke="rgb(204, 204, 204)" stroke-width="1px"></line><line x1="61.953125" y1="123.89999999999995" x2="56.953125" y2="123.89999999999995" style="visibility: inherit;" fill="rgb(0, 0, 0)" stroke="rgb(204, 204, 204)" stroke-width="1px"></line><line x1="61.953125" y1="106.19999999999993" x2="56.953125" y2="106.19999999999993" style="visibility: inherit;" fill="rgb(0, 0, 0)" stroke="rgb(204, 204, 204)" stroke-width="1px"></line><line x1="61.953125" y1="88.49999999999994" x2="56.953125" y2="88.49999999999994" style="visibility: inherit;" fill="rgb(0, 0, 0)" stroke="rgb(204, 204, 204)" stroke-width="1px"></line><line x1="61.953125" y1="70.79999999999993" x2="56.953125" y2="70.79999999999993" style="visibility: inherit;" fill="rgb(0, 0, 0)" stroke="rgb(204, 204, 204)" stroke-width="1px"></line><line x1="61.953125" y1="53.09999999999991" x2="56.953125" y2="53.09999999999991" style="visibility: inherit;" fill="rgb(0, 0, 0)" stroke="rgb(204, 204, 204)" stroke-width="1px"></line><line x1="61.953125" y1="35.400000000000034" x2="56.953125" y2="35.400000000000034" style="visibility: inherit;" fill="rgb(0, 0, 0)" stroke="rgb(204, 204, 204)" stroke-width="1px"></line><line x1="61.953125" y1="17.700000000000017" x2="56.953125" y2="17.700000000000017" style="visibility: inherit;" fill="rgb(0, 0, 0)" stroke="rgb(204, 204, 204)" stroke-width="1px"></line><line x1="61.953125" y1="0" x2="56.953125" y2="0" style="visibility: inherit;" fill="rgb(0, 0, 0)" stroke="rgb(204, 204, 204)" stroke-width="1px"></line></g><g transform="translate(51.953125, 0)"><text x="0" y="177" dx="0em" dy="0.3em" style="text-anchor: end; visibility: hidden; font-family: Roboto, sans-serif; font-size: 12px; font-weight: 200;" fill="rgb(33, 33, 33)" stroke="none" stroke-width="1px">0.086</text><text x="0" y="159.29999999999998" dx="0em" dy="0.3em" style="text-anchor: end; visibility: inherit; font-family: Roboto, sans-serif; font-size: 12px; font-weight: 200;" fill="rgb(33, 33, 33)" stroke="none" stroke-width="1px">0.088</text><text x="0" y="141.59999999999997" dx="0em" dy="0.3em" style="text-anchor: end; visibility: hidden; font-family: Roboto, sans-serif; font-size: 12px; font-weight: 200;" fill="rgb(33, 33, 33)" stroke="none" stroke-width="1px">0.09</text><text x="0" y="123.89999999999995" dx="0em" dy="0.3em" style="text-anchor: end; visibility: inherit; font-family: Roboto, sans-serif; font-size: 12px; font-weight: 200;" fill="rgb(33, 33, 33)" stroke="none" stroke-width="1px">0.092</text><text x="0" y="106.19999999999993" dx="0em" dy="0.3em" style="text-anchor: end; visibility: hidden; font-family: Roboto, sans-serif; font-size: 12px; font-weight: 200;" fill="rgb(33, 33, 33)" stroke="none" stroke-width="1px">0.094</text><text x="0" y="88.49999999999994" dx="0em" dy="0.3em" style="text-anchor: end; visibility: inherit; font-family: Roboto, sans-serif; font-size: 12px; font-weight: 200;" fill="rgb(33, 33, 33)" stroke="none" stroke-width="1px">0.096</text><text x="0" y="70.79999999999993" dx="0em" dy="0.3em" style="text-anchor: end; visibility: hidden; font-family: Roboto, sans-serif; font-size: 12px; font-weight: 200;" fill="rgb(33, 33, 33)" stroke="none" stroke-width="1px">0.098</text><text x="0" y="53.09999999999991" dx="0em" dy="0.3em" style="text-anchor: end; visibility: inherit; font-family: Roboto, sans-serif; font-size: 12px; font-weight: 200;" fill="rgb(33, 33, 33)" stroke="none" stroke-width="1px">0.1</text><text x="0" y="35.400000000000034" dx="0em" dy="0.3em" style="text-anchor: end; visibility: hidden; font-family: Roboto, sans-serif; font-size: 12px; font-weight: 200;" fill="rgb(33, 33, 33)" stroke="none" stroke-width="1px">0.102</text><text x="0" y="17.700000000000017" dx="0em" dy="0.3em" style="text-anchor: end; visibility: inherit; font-family: Roboto, sans-serif; font-size: 12px; font-weight: 200;" fill="rgb(33, 33, 33)" stroke="none" stroke-width="1px">0.104</text><text x="0" y="0" dx="0em" dy="0.3em" style="text-anchor: end; visibility: hidden; font-family: Roboto, sans-serif; font-size: 12px; font-weight: 200;" fill="rgb(33, 33, 33)" stroke="none" stroke-width="1px">0.106</text></g><line x1="61.953125" y1="0" x2="61.953125" y2="177" fill="rgb(0, 0, 0)" stroke="rgb(204, 204, 204)" stroke-width="1px"></line></g></g><g transform="translate(61, 0)" clip-path="url(#clip_0)"><clipPath id="clip_0"><rect width="268" height="177"></rect></clipPath><g><g><g><line x1="0" y1="0" x2="0" y2="177" fill="rgb(0, 0, 0)" stroke="rgb(66, 66, 66)" stroke-width="1px" opacity="0.25"></line><line x1="22.337239583333332" y1="0" x2="22.337239583333332" y2="177" fill="rgb(0, 0, 0)" stroke="rgb(66, 66, 66)" stroke-width="1px" opacity="0.25"></line><line x1="44.674479166666664" y1="0" x2="44.674479166666664" y2="177" fill="rgb(0, 0, 0)" stroke="rgb(66, 66, 66)" stroke-width="1px" opacity="0.25"></line><line x1="67.01171875" y1="0" x2="67.01171875" y2="177" fill="rgb(0, 0, 0)" stroke="rgb(66, 66, 66)" stroke-width="1px" opacity="0.25"></line><line x1="89.34895833333333" y1="0" x2="89.34895833333333" y2="177" fill="rgb(0, 0, 0)" stroke="rgb(66, 66, 66)" stroke-width="1px" opacity="0.25"></line><line x1="111.68619791666667" y1="0" x2="111.68619791666667" y2="177" fill="rgb(0, 0, 0)" stroke="rgb(66, 66, 66)" stroke-width="1px" opacity="0.25"></line><line x1="134.0234375" y1="0" x2="134.0234375" y2="177" fill="rgb(0, 0, 0)" stroke="rgb(66, 66, 66)" stroke-width="1px" opacity="0.25"></line><line x1="156.36067708333334" y1="0" x2="156.36067708333334" y2="177" fill="rgb(0, 0, 0)" stroke="rgb(66, 66, 66)" stroke-width="1px" opacity="0.25"></line><line x1="178.69791666666666" y1="0" x2="178.69791666666666" y2="177" fill="rgb(0, 0, 0)" stroke="rgb(66, 66, 66)" stroke-width="1px" opacity="0.25"></line><line x1="201.03515625" y1="0" x2="201.03515625" y2="177" fill="rgb(0, 0, 0)" stroke="rgb(66, 66, 66)" stroke-width="1px" opacity="0.25"></line><line x1="223.37239583333334" y1="0" x2="223.37239583333334" y2="177" fill="rgb(0, 0, 0)" stroke="rgb(66, 66, 66)" stroke-width="1px" opacity="0.25"></line><line x1="245.70963541666666" y1="0" x2="245.70963541666666" y2="177" fill="rgb(0, 0, 0)" stroke="rgb(66, 66, 66)" stroke-width="1px" opacity="0.25"></line><line x1="268.046875" y1="0" x2="268.046875" y2="177" fill="rgb(0, 0, 0)" stroke="rgb(66, 66, 66)" stroke-width="1px" opacity="0.25"></line></g><g><line x1="0" y1="177" x2="268.046875" y2="177" fill="rgb(0, 0, 0)" stroke="rgb(66, 66, 66)" stroke-width="1px" opacity="0.25"></line><line x1="0" y1="159.29999999999998" x2="268.046875" y2="159.29999999999998" fill="rgb(0, 0, 0)" stroke="rgb(66, 66, 66)" stroke-width="1px" opacity="0.25"></line><line x1="0" y1="141.59999999999997" x2="268.046875" y2="141.59999999999997" fill="rgb(0, 0, 0)" stroke="rgb(66, 66, 66)" stroke-width="1px" opacity="0.25"></line><line x1="0" y1="123.89999999999995" x2="268.046875" y2="123.89999999999995" fill="rgb(0, 0, 0)" stroke="rgb(66, 66, 66)" stroke-width="1px" opacity="0.25"></line><line x1="0" y1="106.19999999999993" x2="268.046875" y2="106.19999999999993" fill="rgb(0, 0, 0)" stroke="rgb(66, 66, 66)" stroke-width="1px" opacity="0.25"></line><line x1="0" y1="88.49999999999994" x2="268.046875" y2="88.49999999999994" fill="rgb(0, 0, 0)" stroke="rgb(66, 66, 66)" stroke-width="1px" opacity="0.25"></line><line x1="0" y1="70.79999999999993" x2="268.046875" y2="70.79999999999993" fill="rgb(0, 0, 0)" stroke="rgb(66, 66, 66)" stroke-width="1px" opacity="0.25"></line><line x1="0" y1="53.09999999999991" x2="268.046875" y2="53.09999999999991" fill="rgb(0, 0, 0)" stroke="rgb(66, 66, 66)" stroke-width="1px" opacity="0.25"></line><line x1="0" y1="35.400000000000034" x2="268.046875" y2="35.400000000000034" fill="rgb(0, 0, 0)" stroke="rgb(66, 66, 66)" stroke-width="1px" opacity="0.25"></line><line x1="0" y1="17.700000000000017" x2="268.046875" y2="17.700000000000017" fill="rgb(0, 0, 0)" stroke="rgb(66, 66, 66)" stroke-width="1px" opacity="0.25"></line><line x1="0" y1="0" x2="268.046875" y2="0" fill="rgb(0, 0, 0)" stroke="rgb(66, 66, 66)" stroke-width="1px" opacity="0.25"></line></g></g></g><g><g><line x1="0" y1="938.0999999999998" x2="268.046875" y2="938.0999999999998" fill="rgb(0, 0, 0)" stroke="rgb(153, 153, 153)" stroke-width="1.5px"></line></g></g><g><g><line x1="22.337239583333332" y1="0" x2="22.337239583333332" y2="177" fill="rgb(0, 0, 0)" stroke="rgb(153, 153, 153)" stroke-width="1.5px"></line></g></g><g><g><g><g><g><path stroke="rgb(0, 119, 187)" stroke-width="2px" d="M24.570963541666664,-24.08377724289897L26.8046875,36.18891126886007L29.038411458333336,67.23130007076011L31.272135416666668,87.83046959323039L33.505859375,98.11245940438909L35.739583333333336,102.40029875791905L37.973307291666664,103.09237109318754L40.20703125,105.47307134931596L42.44075520833333,104.95375954922805L44.674479166666664,111.07536056901202L46.908203125,106.13854087286975L49.14192708333333,107.11645461792416L51.37565104166667,106.34198467496799L53.609375,102.487180204922L55.843098958333336,101.81769021486163L58.07682291666667,107.65787467138604L60.310546875,111.3147233198702L62.544270833333336,114.06458446864423L64.77799479166667,116.4685367009233L67.01171875,114.99916547456561L69.24544270833334,32.726221705601944L71.47916666666667,60.2511792944872L73.712890625,81.6738837839831L75.94661458333333,94.80193745258725L78.18033854166667,101.17540016522652L80.4140625,109.25506225501452L82.64778645833334,112.82094256272102L84.88151041666666,115.05541866900687L87.115234375,118.89492986576724L89.34895833333333,121.08606691745717L91.58268229166667,122.29714760744112L93.81640625,123.90116220343718L96.05013020833333,125.34990054747519L98.28385416666666,125.3289062421331L100.517578125,123.87760311736078L102.75130208333334,123.33764358066944L104.98502604166667,123.50123713775429L107.21875,125.10548806049438L109.45247395833333,124.22945987540828L111.68619791666667,124.96631136491045L113.919921875,125.25779431696746L116.15364583333334,126.80400233960654L118.38736979166666,124.95825821046286L120.62109375,122.87820519342297L122.85481770833333,124.767459838195L125.08854166666667,125.06334086813581L127.322265625,128.5009845732429L129.55598958333334,106.43152931156541L131.78971354166666,113.48203246139725L134.0234375,115.89395891276887L136.25716145833331,121.13949199946028L138.49088541666669,123.85531594653513L140.724609375,123.21800618588564L142.95833333333334,122.95465095412499L145.19205729166666,124.58702931983426L147.42578125,124.32252960552644L149.65950520833334,126.56192893117651L151.89322916666666,127.0892869396804L154.126953125,127.5975802721857L156.36067708333334,128.80529528989075L158.59440104166666,129.46103265603588L160.828125,127.31550675106169L163.06184895833331,126.10314911527703L165.29557291666669,128.0567325313285L167.529296875,129.6847754120466L169.76302083333331,126.09615819094404L171.99674479166669,126.15406149529109L174.23046875,124.097367091791L176.46419270833334,126.31964319814212L178.69791666666666,127.11991624396423L180.931640625,127.55120709396236L183.16536458333334,124.85892941508783L185.39908854166666,-402.47727997091977L192.10026041666666,-62.17841874987794L194.333984375,1.8766321061199145L196.56770833333331,42.016893575080914L198.80143229166669,70.62819682567627L201.03515625,85.44300959354227L203.26888020833331,98.8197447910641L205.50260416666669,105.86363159982764L207.736328125,112.34086365561723L209.97005208333334,118.10413095033786L212.20377604166666,120.15627450392607L214.4375,121.11537006524775L216.67122395833334,118.7254799331877L218.90494791666666,119.2783787706884L221.138671875,120.08157218691063L223.37239583333334,115.55634223578184L225.60611979166666,117.62611404989846L227.83984375,116.61135378083404L230.07356770833331,120.4448481857824L232.30729166666669,121.18024467230131L234.541015625,122.7587221992032L236.77473958333331,123.02069027853102L239.00846354166669,124.03999255914744L241.2421875,124.58510878812822L243.47591145833334,124.32818205077378" style="fill: none;" fill="none"></path></g></g></g></g><g opacity="0.2"><g><g><g><path stroke="rgb(0, 119, 187)" stroke-width="2px" d="M24.570963541666664,-24.08377724289897L26.8046875,72.3525243759155L29.038411458333336,97.03199332058426L31.272135416666668,112.05509295165534L33.505859375,111.53662530183787L35.739583333333336,108.3319242060184L37.973307291666664,104.08204560577865L40.20703125,108.94415517747397L42.44075520833333,104.1878755152225L44.674479166666664,120.16522464752192L46.908203125,98.77808791995045L49.14192708333333,108.57800347208972L51.37565104166667,105.1828085392713L53.609375,96.71252546310421L55.843098958333336,100.81424219012257L58.07682291666667,116.4140324056148L60.310546875,116.79844883680339L62.544270833333336,118.18867800235743L64.77799479166667,120.07409883141513L67.01171875,112.7952429413795L69.24544270833334,-90.67868190407752L71.47916666666667,101.53770995736117L73.712890625,113.80751756429667L75.94661458333333,114.49386244118209L78.18033854166667,110.73554893434043L80.4140625,121.37452093362803L82.64778645833334,118.16975390017028L84.88151041666666,118.40712939798827L87.115234375,124.65419312417502L89.34895833333333,124.37277128398414L91.58268229166667,124.11376824080939L93.81640625,126.30718377828593L96.05013020833333,127.52300789058204L98.28385416666666,125.2974147856235L100.517578125,121.70064849257464L102.75130208333334,122.5277042895555L104.98502604166667,123.7466274708509L107.21875,127.51186442971225L109.45247395833333,122.91541760265822L111.68619791666667,126.07158859670157L113.919921875,125.69501874446864L116.15364583333334,129.123314371705L118.38736979166666,122.18964201807971L120.62109375,119.75812566876407L122.85481770833333,127.60134180486197L125.08854166666667,125.50716241300101L127.322265625,133.6574501305818L129.55598958333334,73.32734642028805L131.78971354166666,124.05778718590732L134.0234375,119.5118485897779L136.25716145833331,129.00779162943357L138.49088541666669,127.92905186712737L140.724609375,122.2620415449142L142.95833333333334,122.55961810648436L145.19205729166666,127.03559686839576L147.42578125,123.9257800340652L149.65950520833334,129.92102791965002L151.89322916666666,127.8803239524364L154.126953125,128.36002027094358L156.36067708333334,130.61686781644815L158.59440104166666,130.44463870525354L160.828125,124.09721789360042L163.06184895833331,124.28461266160006L165.29557291666669,130.98710765540594L167.529296875,132.12683973312372L169.76302083333331,120.71323235929007L171.99674479166669,126.24091645181174L174.23046875,121.01232548654075L176.46419270833334,129.6530573576688L178.69791666666666,128.32032581269735L180.931640625,128.19814336895936L183.16536458333334,120.82051289677615L185.39908854166666,-1193.4815940499302L187.6328125,-59.810635918378864L189.86653645833334,28.637254884839027L192.10026041666666,66.2411603093147L194.333984375,97.95920839011666L196.56770833333331,102.22728577852244L198.80143229166669,113.54515170156951L201.03515625,107.66522874534125L203.26888020833331,118.88484758734698L205.50260416666669,116.42946181297297L207.736328125,122.05671173930163L209.97005208333334,126.74903189241881L212.20377604166666,123.23448983430858L214.4375,122.55401340723033L216.67122395833334,115.14064473509784L218.90494791666666,120.10772702693934L221.138671875,121.28636231124396L223.37239583333334,108.76849730908866L225.60611979166666,120.7307717710733L227.83984375,115.08921337723727L230.07356770833331,126.19508979320521L232.30729166666669,122.28333940207953L234.541015625,125.12643848955626L236.77473958333331,123.41364239752288L239.00846354166669,125.56894598007197L241.2421875,125.40278313159938L243.47591145833334,123.94279194474215" style="fill: none;" fill="none"></path></g></g></g></g></g></g><g transform="translate(61, 177)" clip-path="url(#clip_1)"><clipPath id="clip_1"><rect width="268" height="23"></rect></clipPath><g><g><line x1="0" y1="0" x2="0" y2="5" style="visibility: inherit;" fill="rgb(0, 0, 0)" stroke="rgb(204, 204, 204)" stroke-width="1px"></line><line x1="22.337239583333332" y1="0" x2="22.337239583333332" y2="5" style="visibility: inherit;" fill="rgb(0, 0, 0)" stroke="rgb(204, 204, 204)" stroke-width="1px"></line><line x1="44.674479166666664" y1="0" x2="44.674479166666664" y2="5" style="visibility: inherit;" fill="rgb(0, 0, 0)" stroke="rgb(204, 204, 204)" stroke-width="1px"></line><line x1="67.01171875" y1="0" x2="67.01171875" y2="5" style="visibility: inherit;" fill="rgb(0, 0, 0)" stroke="rgb(204, 204, 204)" stroke-width="1px"></line><line x1="89.34895833333333" y1="0" x2="89.34895833333333" y2="5" style="visibility: inherit;" fill="rgb(0, 0, 0)" stroke="rgb(204, 204, 204)" stroke-width="1px"></line><line x1="111.68619791666667" y1="0" x2="111.68619791666667" y2="5" style="visibility: inherit;" fill="rgb(0, 0, 0)" stroke="rgb(204, 204, 204)" stroke-width="1px"></line><line x1="134.0234375" y1="0" x2="134.0234375" y2="5" style="visibility: inherit;" fill="rgb(0, 0, 0)" stroke="rgb(204, 204, 204)" stroke-width="1px"></line><line x1="156.36067708333334" y1="0" x2="156.36067708333334" y2="5" style="visibility: inherit;" fill="rgb(0, 0, 0)" stroke="rgb(204, 204, 204)" stroke-width="1px"></line><line x1="178.69791666666666" y1="0" x2="178.69791666666666" y2="5" style="visibility: inherit;" fill="rgb(0, 0, 0)" stroke="rgb(204, 204, 204)" stroke-width="1px"></line><line x1="201.03515625" y1="0" x2="201.03515625" y2="5" style="visibility: inherit;" fill="rgb(0, 0, 0)" stroke="rgb(204, 204, 204)" stroke-width="1px"></line><line x1="223.37239583333334" y1="0" x2="223.37239583333334" y2="5" style="visibility: inherit;" fill="rgb(0, 0, 0)" stroke="rgb(204, 204, 204)" stroke-width="1px"></line><line x1="245.70963541666666" y1="0" x2="245.70963541666666" y2="5" style="visibility: inherit;" fill="rgb(0, 0, 0)" stroke="rgb(204, 204, 204)" stroke-width="1px"></line><line x1="268.046875" y1="0" x2="268.046875" y2="5" style="visibility: inherit;" fill="rgb(0, 0, 0)" stroke="rgb(204, 204, 204)" stroke-width="1px"></line></g><g transform="translate(0, 8)"><text x="0" y="0" dx="0em" dy="0.95em" style="text-anchor: middle; visibility: hidden; font-family: Roboto, sans-serif; font-size: 12px; font-weight: 200;" fill="rgb(33, 33, 33)" stroke="none" stroke-width="1px">-10</text><text x="22.337239583333332" y="0" dx="0em" dy="0.95em" style="text-anchor: middle; visibility: inherit; font-family: Roboto, sans-serif; font-size: 12px; font-weight: 200;" fill="rgb(33, 33, 33)" stroke="none" stroke-width="1px">0</text><text x="44.674479166666664" y="0" dx="0em" dy="0.95em" style="text-anchor: middle; visibility: inherit; font-family: Roboto, sans-serif; font-size: 12px; font-weight: 200;" fill="rgb(33, 33, 33)" stroke="none" stroke-width="1px">10</text><text x="67.01171875" y="0" dx="0em" dy="0.95em" style="text-anchor: middle; visibility: inherit; font-family: Roboto, sans-serif; font-size: 12px; font-weight: 200;" fill="rgb(33, 33, 33)" stroke="none" stroke-width="1px">20</text><text x="89.34895833333333" y="0" dx="0em" dy="0.95em" style="text-anchor: middle; visibility: inherit; font-family: Roboto, sans-serif; font-size: 12px; font-weight: 200;" fill="rgb(33, 33, 33)" stroke="none" stroke-width="1px">30</text><text x="111.68619791666667" y="0" dx="0em" dy="0.95em" style="text-anchor: middle; visibility: inherit; font-family: Roboto, sans-serif; font-size: 12px; font-weight: 200;" fill="rgb(33, 33, 33)" stroke="none" stroke-width="1px">40</text><text x="134.0234375" y="0" dx="0em" dy="0.95em" style="text-anchor: middle; visibility: inherit; font-family: Roboto, sans-serif; font-size: 12px; font-weight: 200;" fill="rgb(33, 33, 33)" stroke="none" stroke-width="1px">50</text><text x="156.36067708333334" y="0" dx="0em" dy="0.95em" style="text-anchor: middle; visibility: inherit; font-family: Roboto, sans-serif; font-size: 12px; font-weight: 200;" fill="rgb(33, 33, 33)" stroke="none" stroke-width="1px">60</text><text x="178.69791666666666" y="0" dx="0em" dy="0.95em" style="text-anchor: middle; visibility: inherit; font-family: Roboto, sans-serif; font-size: 12px; font-weight: 200;" fill="rgb(33, 33, 33)" stroke="none" stroke-width="1px">70</text><text x="201.03515625" y="0" dx="0em" dy="0.95em" style="text-anchor: middle; visibility: inherit; font-family: Roboto, sans-serif; font-size: 12px; font-weight: 200;" fill="rgb(33, 33, 33)" stroke="none" stroke-width="1px">80</text><text x="223.37239583333334" y="0" dx="0em" dy="0.95em" style="text-anchor: middle; visibility: inherit; font-family: Roboto, sans-serif; font-size: 12px; font-weight: 200;" fill="rgb(33, 33, 33)" stroke="none" stroke-width="1px">90</text><text x="245.70963541666666" y="0" dx="0em" dy="0.95em" style="text-anchor: middle; visibility: inherit; font-family: Roboto, sans-serif; font-size: 12px; font-weight: 200;" fill="rgb(33, 33, 33)" stroke="none" stroke-width="1px">100</text><text x="268.046875" y="0" dx="0em" dy="0.95em" style="text-anchor: middle; visibility: hidden; font-family: Roboto, sans-serif; font-size: 12px; font-weight: 200;" fill="rgb(33, 33, 33)" stroke="none" stroke-width="1px">110</text></g><line x1="0" y1="0" x2="268.046875" y2="0" fill="rgb(0, 0, 0)" stroke="rgb(204, 204, 204)" stroke-width="1px"></line></g></g></g></g></svg>